# xmcd
#
# Track frame offsets:
#	182
#	11077
#	23280
#	36802
#	52570
#	67637
#	81525
#	90202
#	102462
#	118985
#	130347
#	143472
#	153170
#	165510
#	178935
#	191685
#	202755
#	215667
#	228335
#	235660
#
# Disc length: 3286 seconds
#
# Revision: 1
# Processed by: cddbd v1.5.2PL0 Copyright (c) Steve Scherf et al.
# Submitted via: audiograbber 1.83.01
#
DISCID=f40cd414
DTITLE=Golden Gate Quartet - Golden Years 1949-1952
DYEAR=1950
DGENRE=Gospel
TTITLE0=when the moon goes down
TTITLE1=i'm a pilgrim
TTITLE2=what did jesus say
TTITLE3=hold on
TTITLE4=this whole world
TTITLE5=amazing grace
TTITLE6=have thine own way
TTITLE7=heaven is a beautiful place
TTITLE8=something within me
TTITLE9=downward road
TTITLE10=the end of my journey
TTITLE11=i'll fly away
TTITLE12=give me two things
TTITLE13=lover come back to me
TTITLE14=careless love
TTITLE15=what a time
TTITLE16=you better mind
TTITLE17=look away into heaven
TTITLE18=ride up in the chariot
TTITLE19=walk in jerusalem just like john
EXTD=
EXTT0=
EXTT1=
EXTT2=
EXTT3=
EXTT4=
EXTT5=
EXTT6=
EXTT7=
EXTT8=
EXTT9=
EXTT10=
EXTT11=
EXTT12=
EXTT13=
EXTT14=
EXTT15=
EXTT16=
EXTT17=
EXTT18=
EXTT19=
PLAYORDER=
